<?xml version="1.0" encoding="UTF-8"?>
<svg xmlns="http://www.w3.org/2000/svg" viewBox="0 0 200 200" width="200" height="200">
  <!-- simple terminal/monitor icon with speech bubble -->
  <rect x="20" y="30" width="160" height="100" rx="10" fill="#3A3A3A"/>
  <rect x="34" y="44" width="132" height="72" rx="6" fill="#2D2D2D"/>

  <!-- small prompt lines -->
  <rect x="46" y="64" width="18" height="6" rx="3" fill="#9E9E9E"/>
  <rect x="72" y="64" width="56" height="6" rx="3" fill="#9E9E9E" opacity="0.65"/>

  <!-- base / stand -->
  <rect x="86" y="136" width="28" height="8" rx="3" fill="#3A3A3A"/>
  <rect x="76" y="144" width="48" height="8" rx="4" fill="#2D2D2D"/>

  <!-- speech bubble -->
  <path d="M144 46c0-12 10-22 22-22 12 0 22 10 22 22 0 12-10 22-22 22-6 0-12-2-16-6l-8 4-4-8 6-6c-2-4-2-8-0-10z" fill="#4B4B4B"/>
  <circle cx="158" cy="36" r="2.5" fill="#D0D0D0"/>
  <circle cx="166" cy="36" r="2.5" fill="#D0D0D0"/>
  <circle cx="174" cy="36" r="2.5" fill="#D0D0D0"/>
</svg>
